# xmcd
#
# Track frame offsets: 
#        150
#        21599
#        35646
#        63802
#        81971
#        95769
#        118709
#        140052
#        154133
#
# Disc length: 2246 seconds
#
# Revision: 0
# Processed by: cddbd v1.5.2PL0 Copyright (c) Steve Scherf et al.
# Submitted via: ExactAudioCopyFreeDBPlugin 1.0
#
DISCID=7e08c409
DTITLE=Fifth Avenue - Miracles
DYEAR=1981
DGENRE=Funk
TTITLE0=Got To Take A Chance
TTITLE1=Just Be My Lady
TTITLE2=Everything Has Changed
TTITLE3=Baby Change Your Mind
TTITLE4=You Are My Life
TTITLE5=Miracles
TTITLE6=Got To Take A Chance (Instrumental)
TTITLE7=Everything's Gonna Be Alright
TTITLE8=God Has
EXTD=
EXTT0=
EXTT1=
EXTT2=
EXTT3=
EXTT4=
EXTT5=
EXTT6=
EXTT7=
EXTT8=
PLAYORDER=
